P3
# Created by GIMP version 2.10.14 PNM plug-in
20 20
255
169
169
169
169
169
169
169
169
169
169
169
169
169
169
169
169
169
169
169
169
169
169
169
169
169
169
169
169
169
169
169
169
169
169
169
169
169
169
169
169
169
169
169
169
169
169
169
169
169
169
169
169
169
169
169
169
169
169
169
169
169
169
169
169
169
169
169
169
169
169
169
169
169
169
169
169
169
169
169
169
169
169
169
169
169
169
169
169
169
169
169
169
169
169
169
169
169
169
169
169
169
169
169
169
169
169
169
169
169
169
169
169
169
169
169
169
169
169
169
169
169
169
169
169
169
169
169
169
169
169
169
169
169
169
169
169
169
169
0
0
0
0
0
0
0
0
0
0
0
0
0
0
0
0
0
0
0
0
0
0
0
0
169
169
169
169
169
169
169
169
169
169
169
169
169
169
169
169
169
169
169
169
169
169
169
169
169
169
169
169
169
169
169
169
169
0
0
0
0
0
0
0
0
0
0
0
0
0
0
0
0
0
0
0
0
0
0
0
0
0
0
0
0
0
0
169
169
169
169
169
169
169
169
169
169
169
169
169
169
169
169
169
169
169
169
169
169
169
169
169
169
169
0
0
0
0
0
0
0
0
0
0
0
0
0
0
0
0
0
0
0
0
0
0
0
0
0
0
0
0
0
0
0
0
0
0
0
0
169
169
169
169
169
169
169
169
169
169
169
169
169
169
169
169
169
169
169
169
169
0
0
0
0
0
0
0
0
0
0
0
0
0
0
0
0
0
0
0
0
0
0
0
0
0
0
0
0
0
0
0
0
0
0
0
0
0
0
0
0
0
0
169
169
169
169
169
169
169
169
169
169
169
169
169
169
169
0
0
0
0
0
0
0
0
0
0
0
0
0
0
0
0
0
0
0
0
0
0
0
0
0
0
0
0
0
0
0
0
0
0
0
0
0
0
0
0
0
0
0
0
0
0
0
0
169
169
169
169
169
169
169
169
169
169
169
169
0
0
0
0
0
0
255
255
0
42
42
42
42
42
42
42
42
42
255
255
0
255
255
0
255
255
0
42
42
42
42
42
42
42
42
42
255
255
0
255
255
0
0
0
0
0
0
0
169
169
169
169
169
169
169
169
169
169
169
169
0
0
0
255
255
0
42
42
42
255
255
255
255
255
255
255
255
255
42
42
42
255
255
0
42
42
42
255
255
255
255
255
255
255
255
255
42
42
42
255
255
0
255
255
0
0
0
0
169
169
169
169
169
169
169
169
169
169
169
169
0
0
0
255
255
0
42
42
42
255
255
255
255
0
0
255
255
255
42
42
42
255
255
0
42
42
42
255
255
255
255
0
0
255
255
255
42
42
42
255
255
0
255
255
0
0
0
0
169
169
169
169
169
169
169
169
169
169
169
169
0
0
0
255
255
0
42
42
42
255
255
255
255
255
255
255
255
255
42
42
42
255
255
0
42
42
42
255
255
255
255
255
255
255
255
255
42
42
42
255
255
0
255
255
0
0
0
0
169
169
169
169
169
169
169
169
169
169
169
169
0
0
0
255
255
0
255
255
0
42
42
42
42
42
42
42
42
42
255
255
0
255
255
0
255
255
0
42
42
42
42
42
42
42
42
42
255
255
0
255
255
0
255
255
0
0
0
0
169
169
169
169
169
169
169
169
169
169
169
169
0
0
0
0
0
0
255
255
0
255
255
0
255
255
0
255
255
0
255
255
0
255
255
0
255
255
0
255
255
0
255
255
0
255
255
0
255
255
0
255
255
0
0
0
0
0
0
0
169
169
169
169
169
169
169
169
169
169
169
169
0
0
0
0
0
0
0
0
0
0
0
0
0
0
0
0
0
0
0
0
0
0
0
0
0
0
0
0
0
0
0
0
0
0
0
0
0
0
0
0
0
0
0
0
0
0
0
0
169
169
169
169
169
169
169
169
169
169
169
169
169
169
169
0
0
0
0
0
0
0
0
0
0
0
0
0
0
0
0
0
0
0
0
0
0
0
0
0
0
0
0
0
0
0
0
0
0
0
0
0
0
0
0
0
0
169
169
169
169
169
169
169
169
169
169
169
169
169
169
169
169
169
169
169
169
169
0
0
0
0
0
0
0
0
0
0
0
0
0
0
0
0
0
0
0
0
0
0
0
0
0
0
0
0
0
0
0
0
0
0
0
0
169
169
169
169
169
169
169
169
169
169
169
169
169
169
169
169
169
169
169
169
169
169
169
169
169
169
169
0
0
0
0
0
0
0
0
0
0
0
0
0
0
0
0
0
0
0
0
0
0
0
0
0
0
0
0
0
0
169
169
169
169
169
169
169
169
169
169
169
169
169
169
169
169
169
169
169
169
169
169
169
169
169
169
169
169
169
169
169
169
169
0
0
0
0
0
0
0
0
0
0
0
0
0
0
0
0
0
0
0
0
0
0
0
0
169
169
169
169
169
169
169
169
169
169
169
169
169
169
169
169
169
169
169
169
169
169
169
169
169
169
169
169
169
169
169
169
169
169
169
169
169
169
169
169
169
169
169
169
169
169
169
169
169
169
169
169
169
169
169
169
169
169
169
169
169
169
169
169
169
169
169
169
169
169
169
169
169
169
169
169
169
169
169
169
169
169
169
169
169
169
169
169
169
169
169
169
169
169
169
169
169
169
169
169
169
169
169
169
169
169
169
169
169
169
169
169
169
169
169
169
169
169
169
169
169
169
169
169
169
169
169
169
169
169
169
169
169
169
169
169
169
169
