P3
# Created by GIMP version 2.10.14 PNM plug-in
20 20
255
0
0
0
0
0
0
0
0
0
0
0
0
0
0
0
0
0
0
169
169
169
0
0
0
0
0
0
0
0
0
254
228
33
254
228
33
254
228
33
254
228
33
254
228
33
254
228
33
254
228
33
254
228
33
254
228
33
254
228
33
0
0
0
0
0
0
169
169
169
169
169
169
0
0
0
0
0
0
169
169
169
169
169
169
0
0
0
0
0
0
254
228
33
254
228
33
254
228
33
254
228
33
254
228
33
254
228
33
254
228
33
254
228
33
254
228
33
254
228
33
0
0
0
169
169
169
169
169
169
169
169
169
0
0
0
0
0
0
169
169
169
169
169
169
169
169
169
0
0
0
254
228
33
254
228
33
254
228
33
254
228
33
254
228
33
254
228
33
254
228
33
254
228
33
254
228
33
254
228
33
169
169
169
169
169
169
169
169
169
0
0
0
0
0
0
0
0
0
0
0
0
169
169
169
169
169
169
0
0
0
254
228
33
254
228
33
254
228
33
254
228
33
254
228
33
254
228
33
254
228
33
254
228
33
254
228
33
254
228
33
0
0
0
0
0
0
0
0
0
0
0
0
169
169
169
169
169
169
0
0
0
0
0
0
0
0
0
0
0
0
254
228
33
254
228
33
254
228
33
254
228
33
254
228
33
254
228
33
254
228
33
254
228
33
254
228
33
254
228
33
0
0
0
0
0
0
0
0
0
0
0
0
169
169
169
169
169
169
0
0
0
0
0
0
0
0
0
0
0
0
254
228
33
254
228
33
254
228
33
254
228
33
254
228
33
254
228
33
254
228
33
254
228
33
254
228
33
254
228
33
0
0
0
169
169
169
169
169
169
0
0
0
0
0
0
0
0
0
0
0
0
169
169
169
169
169
169
169
169
169
254
228
33
254
228
33
254
228
33
254
228
33
254
228
33
254
228
33
254
228
33
254
228
33
254
228
33
254
228
33
0
0
0
169
169
169
169
169
169
169
169
169
0
0
0
0
0
0
169
169
169
169
169
169
169
169
169
0
0
0
254
228
33
254
228
33
254
228
33
254
228
33
254
228
33
254
228
33
254
228
33
254
228
33
254
228
33
254
228
33
0
0
0
0
0
0
169
169
169
169
169
169
0
0
0
0
0
0
169
169
169
169
169
169
0
0
0
0
0
0
254
228
33
254
228
33
254
228
33
254
228
33
254
228
33
254
228
33
254
228
33
254
228
33
254
228
33
254
228
33
0
0
0
0
0
0
0
0
0
169
169
169
0
0
0
0
0
0
0
0
0
0
0
0
0
0
0
0
0
0
254
228
33
254
228
33
254
228
33
254
228
33
254
228
33
254
228
33
254
228
33
254
228
33
254
228
33
254
228
33
254
228
33
254
228
33
254
228
33
254
228
33
254
228
33
254
228
33
254
228
33
254
228
33
254
228
33
254
228
33
254
228
33
254
228
33
254
228
33
254
228
33
254
228
33
254
228
33
254
228
33
254
228
33
254
228
33
254
228
33
254
228
33
254
228
33
254
228
33
254
228
33
254
228
33
254
228
33
254
228
33
254
228
33
254
228
33
254
228
33
254
228
33
254
228
33
254
228
33
254
228
33
254
228
33
254
228
33
254
228
33
254
228
33
254
228
33
254
228
33
254
228
33
254
228
33
254
228
33
254
228
33
254
228
33
254
228
33
254
228
33
254
228
33
254
228
33
254
228
33
254
228
33
254
228
33
254
228
33
254
228
33
254
228
33
254
228
33
254
228
33
254
228
33
254
228
33
254
228
33
254
228
33
254
228
33
254
228
33
254
228
33
254
228
33
254
228
33
254
228
33
254
228
33
254
228
33
254
228
33
254
228
33
254
228
33
254
228
33
254
228
33
254
228
33
254
228
33
254
228
33
254
228
33
254
228
33
254
228
33
254
228
33
254
228
33
254
228
33
254
228
33
254
228
33
254
228
33
254
228
33
254
228
33
254
228
33
254
228
33
254
228
33
254
228
33
254
228
33
254
228
33
254
228
33
254
228
33
254
228
33
254
228
33
254
228
33
254
228
33
254
228
33
254
228
33
254
228
33
254
228
33
254
228
33
254
228
33
254
228
33
254
228
33
254
228
33
254
228
33
254
228
33
254
228
33
254
228
33
254
228
33
254
228
33
254
228
33
254
228
33
254
228
33
254
228
33
254
228
33
254
228
33
254
228
33
254
228
33
254
228
33
254
228
33
254
228
33
254
228
33
254
228
33
254
228
33
254
228
33
254
228
33
254
228
33
254
228
33
254
228
33
254
228
33
254
228
33
254
228
33
254
228
33
254
228
33
254
228
33
254
228
33
254
228
33
254
228
33
254
228
33
254
228
33
254
228
33
254
228
33
254
228
33
254
228
33
254
228
33
254
228
33
254
228
33
254
228
33
254
228
33
254
228
33
254
228
33
254
228
33
254
228
33
254
228
33
254
228
33
254
228
33
254
228
33
254
228
33
254
228
33
254
228
33
254
228
33
254
228
33
254
228
33
254
228
33
254
228
33
254
228
33
254
228
33
254
228
33
254
228
33
254
228
33
254
228
33
254
228
33
254
228
33
254
228
33
254
228
33
254
228
33
254
228
33
254
228
33
254
228
33
254
228
33
254
228
33
254
228
33
254
228
33
254
228
33
254
228
33
254
228
33
254
228
33
254
228
33
254
228
33
254
228
33
254
228
33
254
228
33
254
228
33
254
228
33
254
228
33
