P3
# Created by GIMP version 2.10.14 PNM plug-in
20 20
255
42
42
42
42
42
42
42
42
42
42
42
42
42
42
42
42
42
42
42
42
42
42
42
42
42
42
42
42
42
42
42
42
42
42
42
42
42
42
42
42
42
42
42
42
42
42
42
42
42
42
42
42
42
42
42
42
42
42
42
42
42
42
42
42
42
42
42
42
42
42
42
42
42
42
42
42
42
42
42
42
42
42
42
42
42
42
42
42
42
42
42
42
42
42
42
42
42
42
42
42
42
42
42
42
42
42
42
42
42
42
42
42
42
42
42
42
42
42
42
42
42
42
42
42
42
42
42
42
42
42
42
42
42
42
42
42
42
42
0
0
0
0
0
0
0
0
0
0
0
0
0
0
0
0
0
0
0
0
0
0
0
0
42
42
42
42
42
42
42
42
42
42
42
42
42
42
42
42
42
42
42
42
42
42
42
42
42
42
42
42
42
42
42
42
42
0
0
0
0
0
0
0
0
0
0
0
0
0
0
0
0
0
0
0
0
0
0
0
0
0
0
0
0
0
0
42
42
42
42
42
42
42
42
42
42
42
42
42
42
42
42
42
42
42
42
42
42
42
42
42
42
42
0
0
0
0
0
0
0
0
0
0
0
0
0
0
0
0
0
0
0
0
0
0
0
0
0
0
0
0
0
0
0
0
0
0
0
0
42
42
42
42
42
42
42
42
42
42
42
42
42
42
42
42
42
42
42
42
42
0
0
0
0
0
0
0
0
0
0
0
0
0
0
0
0
0
0
0
0
0
0
0
0
0
0
0
0
0
0
0
0
0
0
0
0
0
0
0
0
0
0
42
42
42
42
42
42
42
42
42
42
42
42
42
42
42
0
0
0
0
0
0
0
0
0
0
0
0
0
0
0
0
0
0
0
0
0
0
0
0
0
0
0
0
0
0
0
0
0
0
0
0
0
0
0
0
0
0
0
0
0
0
0
0
42
42
42
42
42
42
42
42
42
42
42
42
0
0
0
0
0
0
254
228
33
67
52
16
67
52
16
67
52
16
255
230
34
255
230
34
255
230
34
67
52
16
67
52
16
67
52
16
248
219
30
239
204
25
0
0
0
0
0
0
42
42
42
42
42
42
42
42
42
42
42
42
0
0
0
250
221
31
67
52
16
255
255
255
255
255
255
255
255
255
67
52
16
255
230
34
67
52
16
255
255
255
255
255
255
255
255
255
67
52
16
241
207
26
228
186
20
0
0
0
42
42
42
42
42
42
42
42
42
42
42
42
0
0
0
250
221
31
67
52
16
255
255
255
67
52
16
255
255
255
67
52
16
255
230
34
67
52
16
255
255
255
67
52
16
255
255
255
67
52
16
241
207
26
228
186
20
0
0
0
42
42
42
42
42
42
42
42
42
42
42
42
0
0
0
248
219
30
67
52
16
255
255
255
255
255
255
255
255
255
67
52
16
255
230
34
67
52
16
255
255
255
255
255
255
255
255
255
67
52
16
239
204
25
226
183
19
0
0
0
42
42
42
42
42
42
42
42
42
42
42
42
0
0
0
246
215
29
252
225
32
67
52
16
67
52
16
67
52
16
255
230
34
255
230
34
255
230
34
67
52
16
67
52
16
67
52
16
246
215
29
235
198
23
222
177
16
0
0
0
42
42
42
42
42
42
42
42
42
42
42
42
0
0
0
0
0
0
249
219
31
253
226
33
255
229
34
255
230
34
255
230
34
255
230
34
255
230
34
255
229
34
253
226
33
249
219
31
241
207
26
230
188
20
0
0
0
0
0
0
42
42
42
42
42
42
42
42
42
42
42
42
0
0
0
0
0
0
0
0
0
0
0
0
0
0
0
0
0
0
0
0
0
0
0
0
0
0
0
0
0
0
0
0
0
0
0
0
0
0
0
0
0
0
0
0
0
0
0
0
42
42
42
42
42
42
42
42
42
42
42
42
42
42
42
0
0
0
0
0
0
0
0
0
0
0
0
0
0
0
0
0
0
0
0
0
0
0
0
0
0
0
0
0
0
0
0
0
0
0
0
0
0
0
0
0
0
42
42
42
42
42
42
42
42
42
42
42
42
42
42
42
42
42
42
42
42
42
0
0
0
0
0
0
0
0
0
0
0
0
0
0
0
0
0
0
0
0
0
0
0
0
0
0
0
0
0
0
0
0
0
0
0
0
42
42
42
42
42
42
42
42
42
42
42
42
42
42
42
42
42
42
42
42
42
42
42
42
42
42
42
0
0
0
0
0
0
0
0
0
0
0
0
0
0
0
0
0
0
0
0
0
0
0
0
0
0
0
0
0
0
42
42
42
42
42
42
42
42
42
42
42
42
42
42
42
42
42
42
42
42
42
42
42
42
42
42
42
42
42
42
42
42
42
0
0
0
0
0
0
0
0
0
0
0
0
0
0
0
0
0
0
0
0
0
0
0
0
42
42
42
42
42
42
42
42
42
42
42
42
42
42
42
42
42
42
42
42
42
42
42
42
42
42
42
42
42
42
42
42
42
42
42
42
42
42
42
42
42
42
42
42
42
42
42
42
42
42
42
42
42
42
42
42
42
42
42
42
42
42
42
42
42
42
42
42
42
42
42
42
42
42
42
42
42
42
42
42
42
42
42
42
42
42
42
42
42
42
42
42
42
42
42
42
42
42
42
42
42
42
42
42
42
42
42
42
42
42
42
42
42
42
42
42
42
42
42
42
42
42
42
42
42
42
42
42
42
42
42
42
42
42
42
42
42
42
