P3
# Created by GIMP version 2.10.14 PNM plug-in
20 20
255
169
169
169
169
169
169
169
169
169
169
169
169
169
169
169
169
169
169
169
169
169
139
0
0
139
0
0
139
0
0
169
169
169
169
169
169
169
169
169
169
169
169
169
169
169
169
169
169
169
169
169
169
169
169
169
169
169
169
169
169
169
169
169
169
169
169
169
169
169
169
169
169
169
169
169
169
169
169
139
0
0
169
169
169
139
0
0
139
0
0
139
0
0
169
169
169
169
169
169
169
169
169
169
169
169
169
169
169
169
169
169
169
169
169
169
169
169
169
169
169
169
169
169
169
169
169
169
169
169
169
169
169
169
169
169
169
169
169
169
169
169
169
169
169
139
0
0
139
0
0
139
0
0
139
0
0
169
169
169
169
169
169
169
169
169
169
169
169
169
169
169
169
169
169
169
169
169
169
169
169
169
169
169
169
169
169
169
169
169
169
169
169
169
169
169
169
169
169
169
169
169
169
169
169
0
0
0
0
0
0
255
255
0
255
255
0
0
0
0
169
169
169
169
169
169
169
169
169
169
169
169
169
169
169
169
169
169
169
169
169
169
169
169
169
169
169
169
169
169
169
169
169
169
169
169
169
169
169
169
169
169
139
0
0
139
0
0
139
0
0
139
0
0
139
0
0
139
0
0
139
0
0
169
169
169
169
169
169
169
169
169
169
169
169
169
169
169
169
169
169
169
169
169
169
169
169
169
169
169
169
169
169
169
169
169
169
169
169
169
169
169
255
255
255
255
255
0
255
255
0
255
255
0
255
255
0
255
255
0
169
169
169
169
169
169
169
169
169
169
169
169
169
169
169
169
169
169
169
169
169
169
169
169
169
169
169
169
169
169
169
169
169
169
169
169
169
169
169
169
169
169
255
255
255
255
255
0
0
0
255
255
255
0
255
255
0
0
0
255
169
169
169
169
169
169
169
169
169
169
169
169
169
169
169
169
169
169
169
169
169
169
169
169
169
169
169
169
169
169
169
169
169
169
169
169
169
169
169
169
169
169
255
255
255
255
255
0
255
255
0
255
255
255
255
255
255
255
255
0
169
169
169
169
169
169
169
169
169
169
169
169
169
169
169
169
169
169
169
169
169
169
169
169
169
169
169
169
169
169
169
169
169
169
169
169
169
169
169
139
0
0
255
255
255
255
255
255
255
255
255
139
139
0
255
255
0
255
255
255
139
0
0
139
0
0
169
169
169
169
169
169
169
169
169
169
169
169
169
169
169
169
169
169
169
169
169
169
169
169
169
169
169
169
169
169
139
0
0
139
0
0
139
0
0
255
255
255
139
139
0
0
255
0
139
139
0
255
255
255
139
0
0
139
0
0
139
0
0
169
169
169
169
169
169
169
169
169
169
169
169
169
169
169
169
169
169
169
169
169
169
169
169
169
169
169
139
0
0
139
0
0
255
0
0
255
0
0
255
255
255
139
139
0
255
255
255
255
0
0
139
0
0
139
0
0
139
0
0
169
169
169
169
169
169
169
169
169
169
169
169
169
169
169
169
169
169
169
169
169
169
169
169
169
169
169
139
0
0
139
0
0
255
0
0
255
0
0
255
0
0
0
0
0
255
0
0
255
0
0
139
0
0
139
0
0
139
0
0
169
169
169
169
169
169
169
169
169
169
169
169
169
169
169
169
169
169
169
169
169
169
169
169
169
169
169
139
0
0
139
0
0
255
0
0
255
0
0
255
0
0
0
0
0
255
0
0
255
0
0
139
0
0
139
0
0
139
0
0
169
169
169
169
169
169
169
169
169
169
169
169
169
169
169
169
169
169
169
169
169
169
169
169
169
169
169
139
0
0
139
0
0
255
0
0
255
0
0
255
0
0
0
0
0
255
0
0
255
0
0
139
0
0
139
0
0
139
0
0
169
169
169
169
169
169
169
169
169
169
169
169
169
169
169
169
169
169
169
169
169
169
169
169
169
169
169
139
0
0
139
0
0
139
0
0
255
255
0
255
255
0
255
255
0
255
0
0
255
0
0
139
0
0
139
0
0
139
0
0
169
169
169
169
169
169
169
169
169
169
169
169
169
169
169
169
169
169
169
169
169
169
169
169
169
169
169
169
169
169
139
0
0
139
0
0
255
255
0
255
255
0
255
255
0
255
0
0
255
0
0
139
0
0
139
0
0
139
0
0
169
169
169
169
169
169
169
169
169
169
169
169
169
169
169
169
169
169
169
169
169
169
169
169
169
169
169
169
169
169
169
169
169
169
169
169
255
0
0
255
0
0
0
0
0
255
0
0
255
0
0
139
0
0
139
0
0
139
0
0
169
169
169
169
169
169
169
169
169
169
169
169
169
169
169
169
169
169
169
169
169
169
169
169
169
169
169
169
169
169
169
169
169
169
169
169
255
0
0
255
0
0
255
0
0
255
0
0
255
0
0
255
255
0
255
255
0
255
255
0
169
169
169
169
169
169
169
169
169
169
169
169
169
169
169
169
169
169
169
169
169
169
169
169
169
169
169
169
169
169
169
169
169
0
0
0
0
0
0
0
0
0
169
169
169
0
0
0
0
0
0
0
0
0
169
169
169
169
169
169
169
169
169
169
169
169
169
169
169
169
169
169
169
169
169
169
169
169
169
169
169
169
169
169
169
169
169
169
169
169
169
169
169
0
0
0
0
0
0
0
0
0
169
169
169
0
0
0
0
0
0
0
0
0
169
169
169
169
169
169
169
169
169
169
169
169
169
169
169
169
169
169
